<?xml version="1.0" encoding="iso-8859-1"?>
<!-- Generator: Adobe Illustrator 16.0.0, SVG Export Plug-In . SVG Version: 6.00 Build 0)  -->
<!DOCTYPE svg PUBLIC "-//W3C//DTD SVG 1.1//EN" "http://www.w3.org/Graphics/SVG/1.1/DTD/svg11.dtd">
<svg version="1.1" id="Capa_1" xmlns="http://www.w3.org/2000/svg" xmlns:xlink="http://www.w3.org/1999/xlink" x="0px" y="0px"
	 width="26.471px" height="26.471px" viewBox="0 0 26.471 26.471" style="enable-background:new 0 0 26.471 26.471;"
	 xml:space="preserve">
<g>
	<g>
		<path d="M11.856,6.283L4.342,3.951l-0.13,0.138C4.102,4.205,1.53,6.97,2.425,9.917c0.805,2.649-0.836,7.357-2.154,11.141
			l-0.096,0.28c-0.067,0.146-0.272,0.648-0.12,0.99c0.062,0.138,0.174,0.237,0.318,0.282l4.188,1.3l0,0
			c0.143,0.044,0.293,0.026,0.422-0.054C5.302,23.662,5.417,23.131,5.438,23l0.086-0.312c1.056-3.864,2.371-8.674,4.534-10.402
			c2.406-1.922,1.853-5.657,1.828-5.815L11.856,6.283z M4.532,4.647l6.773,2.103c0.027,0.276,0.058,0.842,0,1.512
			c-0.55,0.503-1.972,1.595-3.507,1.092C5.145,8.25,3.451,8.749,2.872,8.996C2.695,7.003,4.1,5.16,4.532,4.647z M0.657,21.79
			c0.022-0.072,0.049-0.15,0.083-0.227l0.107-0.306c1.325-3.803,2.963-8.517,2.196-11.373C3.02,9.771,2.999,9.682,2.983,9.618
			l1.138,0.353C3.639,15.653,1.199,20.723,0.657,21.79z"/>
		<path d="M26.211,20.063l-0.146-0.289c-1.808-3.574-4.057-8.024-3.61-10.756c0.496-3.039-2.419-5.439-2.543-5.54l-0.148-0.12
			l-7.139,3.308l-0.004,0.19c-0.004,0.16-0.058,3.936,2.582,5.522c2.373,1.426,4.312,6.02,5.872,9.709l0.116,0.271
			c0.048,0.154,0.233,0.664,0.575,0.814c0.138,0.061,0.289,0.059,0.425-0.004l3.979-1.843l0,0c0.136-0.063,0.234-0.177,0.276-0.322
			C26.553,20.645,26.283,20.174,26.211,20.063z M19.668,4.074c0.499,0.453,2.151,2.108,2.225,4.119L20.67,8.76
			c-0.776,0.217-1.755,0.252-2.779-0.31c-1.957-1.075-3.851-0.096-4.42,0.255c-0.175-0.721-0.226-1.351-0.237-1.649L19.668,4.074z
			 M21.762,22.147l-0.126-0.299c-1.567-3.709-3.513-8.306-5.996-9.91c-0.093-0.068-0.168-0.121-0.223-0.158l1.081-0.501
			c3.452,4.538,5.042,9.938,5.354,11.091C21.819,22.301,21.788,22.225,21.762,22.147z"/>
		<path d="M10.183,5.324c0.031,0.018,0.065,0.025,0.098,0.025c0.072,0,0.141-0.038,0.178-0.105c0.055-0.099,0.019-0.223-0.08-0.277
			l-0.925-0.51C9.357,4.402,9.232,4.438,9.178,4.536c-0.055,0.099-0.019,0.223,0.08,0.277L10.183,5.324z"/>
		<path d="M10.639,4.595c0.04,0.046,0.097,0.07,0.154,0.07c0.048,0,0.096-0.017,0.134-0.05c0.085-0.074,0.094-0.203,0.02-0.287
			l-0.695-0.796c-0.074-0.085-0.204-0.093-0.288-0.02C9.879,3.585,9.87,3.714,9.944,3.798L10.639,4.595z"/>
		<path d="M11.506,4.198c0.024,0,0.049-0.004,0.073-0.014c0.105-0.041,0.157-0.158,0.117-0.264l-0.381-0.986
			c-0.04-0.105-0.159-0.157-0.264-0.117c-0.105,0.041-0.157,0.158-0.117,0.264l0.381,0.986C11.348,4.148,11.425,4.198,11.506,4.198z
			"/>
		<path d="M12.317,2.538c-0.001,0-0.002,0-0.004,0c-0.113,0.002-0.202,0.096-0.2,0.208l0.02,1.056c0.002,0.111,0.093,0.2,0.204,0.2
			c0.001,0,0.003,0,0.004,0c0.113-0.002,0.202-0.096,0.2-0.208l-0.02-1.056C12.519,2.625,12.428,2.538,12.317,2.538z"/>
		<path d="M13.119,4.092c0.022,0.008,0.044,0.011,0.066,0.011c0.085,0,0.164-0.053,0.193-0.138l0.343-1
			c0.037-0.107-0.02-0.222-0.127-0.259c-0.106-0.039-0.223,0.02-0.259,0.127l-0.343,1C12.956,3.939,13.013,4.055,13.119,4.092z"/>
		<path d="M13.947,4.488c0.059,0,0.118-0.026,0.158-0.076l0.664-0.822c0.071-0.088,0.058-0.216-0.03-0.287
			c-0.088-0.07-0.216-0.057-0.286,0.03l-0.664,0.822c-0.071,0.088-0.057,0.216,0.03,0.287C13.857,4.473,13.902,4.488,13.947,4.488z"
			/>
		<path d="M14.357,5.011c0.038,0.064,0.105,0.099,0.175,0.099c0.035,0,0.071-0.01,0.104-0.029l0.906-0.546
			c0.096-0.058,0.127-0.183,0.068-0.279c-0.058-0.096-0.184-0.127-0.278-0.069l-0.906,0.546C14.33,4.789,14.3,4.914,14.357,5.011z"
			/>
	</g>
</g>
<g>
</g>
<g>
</g>
<g>
</g>
<g>
</g>
<g>
</g>
<g>
</g>
<g>
</g>
<g>
</g>
<g>
</g>
<g>
</g>
<g>
</g>
<g>
</g>
<g>
</g>
<g>
</g>
<g>
</g>
</svg>
